<svg width="1060" height="220" viewBox="0 0 1060 220" fill="none" xmlns="http://www.w3.org/2000/svg" role="img" aria-label="S-skills">
  <defs>
    <linearGradient id="gold" gradientUnits="userSpaceOnUse" x1="0" y1="40" x2="0" y2="180">
      <stop offset="0" stop-color="#ffd23f"/>
      <stop offset="0.45" stop-color="#f7a521"/>
      <stop offset="1" stop-color="#a85518"/>
    </linearGradient>
  </defs>
  <rect x="0" y="0" width="1060" height="220" fill="#0d0d0d"/>
  <g stroke="#f2a92b" stroke-width="2.0" opacity="0.85" stroke-linecap="square">
    <line x1="72.0" y1="52.0" x2="92.0" y2="52.0"/>
    <line x1="72.0" y1="52.0" x2="72.0" y2="72.0"/>
    <line x1="92.0" y1="52.0" x2="112.0" y2="52.0"/>
    <line x1="92.0" y1="72.0" x2="112.0" y2="72.0"/>
    <line x1="112.0" y1="52.0" x2="132.0" y2="52.0"/>
    <line x1="112.0" y1="72.0" x2="132.0" y2="72.0"/>
    <line x1="132.0" y1="52.0" x2="152.0" y2="52.0"/>
    <line x1="132.0" y1="72.0" x2="152.0" y2="72.0"/>
    <line x1="152.0" y1="52.0" x2="172.0" y2="52.0"/>
    <line x1="152.0" y1="72.0" x2="172.0" y2="72.0"/>
    <line x1="172.0" y1="52.0" x2="172.0" y2="72.0"/>
    <line x1="72.0" y1="72.0" x2="72.0" y2="92.0"/>
    <line x1="92.0" y1="72.0" x2="92.0" y2="92.0"/>
    <line x1="72.0" y1="92.0" x2="72.0" y2="112.0"/>
    <line x1="92.0" y1="92.0" x2="92.0" y2="112.0"/>
    <line x1="72.0" y1="132.0" x2="92.0" y2="132.0"/>
    <line x1="72.0" y1="112.0" x2="72.0" y2="132.0"/>
    <line x1="92.0" y1="112.0" x2="112.0" y2="112.0"/>
    <line x1="92.0" y1="132.0" x2="112.0" y2="132.0"/>
    <line x1="112.0" y1="112.0" x2="132.0" y2="112.0"/>
    <line x1="112.0" y1="132.0" x2="132.0" y2="132.0"/>
    <line x1="132.0" y1="112.0" x2="152.0" y2="112.0"/>
    <line x1="132.0" y1="132.0" x2="152.0" y2="132.0"/>
    <line x1="152.0" y1="112.0" x2="172.0" y2="112.0"/>
    <line x1="172.0" y1="112.0" x2="172.0" y2="132.0"/>
    <line x1="152.0" y1="132.0" x2="152.0" y2="152.0"/>
    <line x1="172.0" y1="132.0" x2="172.0" y2="152.0"/>
    <line x1="152.0" y1="152.0" x2="152.0" y2="172.0"/>
    <line x1="172.0" y1="152.0" x2="172.0" y2="172.0"/>
    <line x1="72.0" y1="172.0" x2="92.0" y2="172.0"/>
    <line x1="72.0" y1="192.0" x2="92.0" y2="192.0"/>
    <line x1="72.0" y1="172.0" x2="72.0" y2="192.0"/>
    <line x1="92.0" y1="172.0" x2="112.0" y2="172.0"/>
    <line x1="92.0" y1="192.0" x2="112.0" y2="192.0"/>
    <line x1="112.0" y1="172.0" x2="132.0" y2="172.0"/>
    <line x1="112.0" y1="192.0" x2="132.0" y2="192.0"/>
    <line x1="132.0" y1="172.0" x2="152.0" y2="172.0"/>
    <line x1="132.0" y1="192.0" x2="152.0" y2="192.0"/>
    <line x1="152.0" y1="192.0" x2="172.0" y2="192.0"/>
    <line x1="172.0" y1="172.0" x2="172.0" y2="192.0"/>
    <line x1="192.0" y1="112.0" x2="212.0" y2="112.0"/>
    <line x1="192.0" y1="132.0" x2="212.0" y2="132.0"/>
    <line x1="192.0" y1="112.0" x2="192.0" y2="132.0"/>
    <line x1="212.0" y1="112.0" x2="232.0" y2="112.0"/>
    <line x1="212.0" y1="132.0" x2="232.0" y2="132.0"/>
    <line x1="232.0" y1="112.0" x2="252.0" y2="112.0"/>
    <line x1="232.0" y1="132.0" x2="252.0" y2="132.0"/>
    <line x1="252.0" y1="112.0" x2="272.0" y2="112.0"/>
    <line x1="252.0" y1="132.0" x2="272.0" y2="132.0"/>
    <line x1="272.0" y1="112.0" x2="292.0" y2="112.0"/>
    <line x1="272.0" y1="132.0" x2="292.0" y2="132.0"/>
    <line x1="292.0" y1="112.0" x2="292.0" y2="132.0"/>
    <line x1="312.0" y1="52.0" x2="332.0" y2="52.0"/>
    <line x1="312.0" y1="52.0" x2="312.0" y2="72.0"/>
    <line x1="332.0" y1="52.0" x2="352.0" y2="52.0"/>
    <line x1="332.0" y1="72.0" x2="352.0" y2="72.0"/>
    <line x1="352.0" y1="52.0" x2="372.0" y2="52.0"/>
    <line x1="352.0" y1="72.0" x2="372.0" y2="72.0"/>
    <line x1="372.0" y1="52.0" x2="392.0" y2="52.0"/>
    <line x1="372.0" y1="72.0" x2="392.0" y2="72.0"/>
    <line x1="392.0" y1="52.0" x2="412.0" y2="52.0"/>
    <line x1="392.0" y1="72.0" x2="412.0" y2="72.0"/>
    <line x1="412.0" y1="52.0" x2="412.0" y2="72.0"/>
    <line x1="312.0" y1="72.0" x2="312.0" y2="92.0"/>
    <line x1="332.0" y1="72.0" x2="332.0" y2="92.0"/>
    <line x1="312.0" y1="92.0" x2="312.0" y2="112.0"/>
    <line x1="332.0" y1="92.0" x2="332.0" y2="112.0"/>
    <line x1="312.0" y1="132.0" x2="332.0" y2="132.0"/>
    <line x1="312.0" y1="112.0" x2="312.0" y2="132.0"/>
    <line x1="332.0" y1="112.0" x2="352.0" y2="112.0"/>
    <line x1="332.0" y1="132.0" x2="352.0" y2="132.0"/>
    <line x1="352.0" y1="112.0" x2="372.0" y2="112.0"/>
    <line x1="352.0" y1="132.0" x2="372.0" y2="132.0"/>
    <line x1="372.0" y1="112.0" x2="392.0" y2="112.0"/>
    <line x1="372.0" y1="132.0" x2="392.0" y2="132.0"/>
    <line x1="392.0" y1="112.0" x2="412.0" y2="112.0"/>
    <line x1="412.0" y1="112.0" x2="412.0" y2="132.0"/>
    <line x1="392.0" y1="132.0" x2="392.0" y2="152.0"/>
    <line x1="412.0" y1="132.0" x2="412.0" y2="152.0"/>
    <line x1="392.0" y1="152.0" x2="392.0" y2="172.0"/>
    <line x1="412.0" y1="152.0" x2="412.0" y2="172.0"/>
    <line x1="312.0" y1="172.0" x2="332.0" y2="172.0"/>
    <line x1="312.0" y1="192.0" x2="332.0" y2="192.0"/>
    <line x1="312.0" y1="172.0" x2="312.0" y2="192.0"/>
    <line x1="332.0" y1="172.0" x2="352.0" y2="172.0"/>
    <line x1="332.0" y1="192.0" x2="352.0" y2="192.0"/>
    <line x1="352.0" y1="172.0" x2="372.0" y2="172.0"/>
    <line x1="352.0" y1="192.0" x2="372.0" y2="192.0"/>
    <line x1="372.0" y1="172.0" x2="392.0" y2="172.0"/>
    <line x1="372.0" y1="192.0" x2="392.0" y2="192.0"/>
    <line x1="392.0" y1="192.0" x2="412.0" y2="192.0"/>
    <line x1="412.0" y1="172.0" x2="412.0" y2="192.0"/>
    <line x1="432.0" y1="52.0" x2="452.0" y2="52.0"/>
    <line x1="432.0" y1="52.0" x2="432.0" y2="72.0"/>
    <line x1="452.0" y1="52.0" x2="452.0" y2="72.0"/>
    <line x1="512.0" y1="52.0" x2="532.0" y2="52.0"/>
    <line x1="512.0" y1="72.0" x2="532.0" y2="72.0"/>
    <line x1="512.0" y1="52.0" x2="512.0" y2="72.0"/>
    <line x1="532.0" y1="52.0" x2="532.0" y2="72.0"/>
    <line x1="432.0" y1="72.0" x2="432.0" y2="92.0"/>
    <line x1="452.0" y1="72.0" x2="452.0" y2="92.0"/>
    <line x1="492.0" y1="72.0" x2="512.0" y2="72.0"/>
    <line x1="492.0" y1="92.0" x2="512.0" y2="92.0"/>
    <line x1="492.0" y1="72.0" x2="492.0" y2="92.0"/>
    <line x1="512.0" y1="72.0" x2="512.0" y2="92.0"/>
    <line x1="432.0" y1="92.0" x2="432.0" y2="112.0"/>
    <line x1="452.0" y1="92.0" x2="452.0" y2="112.0"/>
    <line x1="472.0" y1="92.0" x2="492.0" y2="92.0"/>
    <line x1="472.0" y1="112.0" x2="492.0" y2="112.0"/>
    <line x1="472.0" y1="92.0" x2="472.0" y2="112.0"/>
    <line x1="492.0" y1="92.0" x2="492.0" y2="112.0"/>
    <line x1="432.0" y1="112.0" x2="432.0" y2="132.0"/>
    <line x1="452.0" y1="112.0" x2="472.0" y2="112.0"/>
    <line x1="452.0" y1="132.0" x2="472.0" y2="132.0"/>
    <line x1="472.0" y1="112.0" x2="472.0" y2="132.0"/>
    <line x1="432.0" y1="132.0" x2="432.0" y2="152.0"/>
    <line x1="452.0" y1="132.0" x2="452.0" y2="152.0"/>
    <line x1="472.0" y1="132.0" x2="492.0" y2="132.0"/>
    <line x1="472.0" y1="152.0" x2="492.0" y2="152.0"/>
    <line x1="472.0" y1="132.0" x2="472.0" y2="152.0"/>
    <line x1="492.0" y1="132.0" x2="492.0" y2="152.0"/>
    <line x1="432.0" y1="152.0" x2="432.0" y2="172.0"/>
    <line x1="452.0" y1="152.0" x2="452.0" y2="172.0"/>
    <line x1="492.0" y1="152.0" x2="512.0" y2="152.0"/>
    <line x1="492.0" y1="172.0" x2="512.0" y2="172.0"/>
    <line x1="492.0" y1="152.0" x2="492.0" y2="172.0"/>
    <line x1="512.0" y1="152.0" x2="512.0" y2="172.0"/>
    <line x1="432.0" y1="192.0" x2="452.0" y2="192.0"/>
    <line x1="432.0" y1="172.0" x2="432.0" y2="192.0"/>
    <line x1="452.0" y1="172.0" x2="452.0" y2="192.0"/>
    <line x1="512.0" y1="172.0" x2="532.0" y2="172.0"/>
    <line x1="512.0" y1="192.0" x2="532.0" y2="192.0"/>
    <line x1="512.0" y1="172.0" x2="512.0" y2="192.0"/>
    <line x1="532.0" y1="172.0" x2="532.0" y2="192.0"/>
    <line x1="552.0" y1="52.0" x2="572.0" y2="52.0"/>
    <line x1="552.0" y1="72.0" x2="572.0" y2="72.0"/>
    <line x1="552.0" y1="52.0" x2="552.0" y2="72.0"/>
    <line x1="572.0" y1="52.0" x2="592.0" y2="52.0"/>
    <line x1="572.0" y1="72.0" x2="592.0" y2="72.0"/>
    <line x1="592.0" y1="52.0" x2="612.0" y2="52.0"/>
    <line x1="612.0" y1="52.0" x2="632.0" y2="52.0"/>
    <line x1="612.0" y1="72.0" x2="632.0" y2="72.0"/>
    <line x1="632.0" y1="52.0" x2="652.0" y2="52.0"/>
    <line x1="632.0" y1="72.0" x2="652.0" y2="72.0"/>
    <line x1="652.0" y1="52.0" x2="652.0" y2="72.0"/>
    <line x1="592.0" y1="72.0" x2="592.0" y2="92.0"/>
    <line x1="612.0" y1="72.0" x2="612.0" y2="92.0"/>
    <line x1="592.0" y1="92.0" x2="592.0" y2="112.0"/>
    <line x1="612.0" y1="92.0" x2="612.0" y2="112.0"/>
    <line x1="592.0" y1="112.0" x2="592.0" y2="132.0"/>
    <line x1="612.0" y1="112.0" x2="612.0" y2="132.0"/>
    <line x1="592.0" y1="132.0" x2="592.0" y2="152.0"/>
    <line x1="612.0" y1="132.0" x2="612.0" y2="152.0"/>
    <line x1="592.0" y1="152.0" x2="592.0" y2="172.0"/>
    <line x1="612.0" y1="152.0" x2="612.0" y2="172.0"/>
    <line x1="552.0" y1="172.0" x2="572.0" y2="172.0"/>
    <line x1="552.0" y1="192.0" x2="572.0" y2="192.0"/>
    <line x1="552.0" y1="172.0" x2="552.0" y2="192.0"/>
    <line x1="572.0" y1="172.0" x2="592.0" y2="172.0"/>
    <line x1="572.0" y1="192.0" x2="592.0" y2="192.0"/>
    <line x1="592.0" y1="192.0" x2="612.0" y2="192.0"/>
    <line x1="612.0" y1="172.0" x2="632.0" y2="172.0"/>
    <line x1="612.0" y1="192.0" x2="632.0" y2="192.0"/>
    <line x1="632.0" y1="172.0" x2="652.0" y2="172.0"/>
    <line x1="632.0" y1="192.0" x2="652.0" y2="192.0"/>
    <line x1="652.0" y1="172.0" x2="652.0" y2="192.0"/>
    <line x1="672.0" y1="52.0" x2="692.0" y2="52.0"/>
    <line x1="672.0" y1="52.0" x2="672.0" y2="72.0"/>
    <line x1="692.0" y1="52.0" x2="692.0" y2="72.0"/>
    <line x1="672.0" y1="72.0" x2="672.0" y2="92.0"/>
    <line x1="692.0" y1="72.0" x2="692.0" y2="92.0"/>
    <line x1="672.0" y1="92.0" x2="672.0" y2="112.0"/>
    <line x1="692.0" y1="92.0" x2="692.0" y2="112.0"/>
    <line x1="672.0" y1="112.0" x2="672.0" y2="132.0"/>
    <line x1="692.0" y1="112.0" x2="692.0" y2="132.0"/>
    <line x1="672.0" y1="132.0" x2="672.0" y2="152.0"/>
    <line x1="692.0" y1="132.0" x2="692.0" y2="152.0"/>
    <line x1="672.0" y1="152.0" x2="672.0" y2="172.0"/>
    <line x1="692.0" y1="152.0" x2="692.0" y2="172.0"/>
    <line x1="672.0" y1="192.0" x2="692.0" y2="192.0"/>
    <line x1="672.0" y1="172.0" x2="672.0" y2="192.0"/>
    <line x1="692.0" y1="172.0" x2="712.0" y2="172.0"/>
    <line x1="692.0" y1="192.0" x2="712.0" y2="192.0"/>
    <line x1="712.0" y1="172.0" x2="732.0" y2="172.0"/>
    <line x1="712.0" y1="192.0" x2="732.0" y2="192.0"/>
    <line x1="732.0" y1="172.0" x2="752.0" y2="172.0"/>
    <line x1="732.0" y1="192.0" x2="752.0" y2="192.0"/>
    <line x1="752.0" y1="172.0" x2="772.0" y2="172.0"/>
    <line x1="752.0" y1="192.0" x2="772.0" y2="192.0"/>
    <line x1="772.0" y1="172.0" x2="772.0" y2="192.0"/>
    <line x1="792.0" y1="52.0" x2="812.0" y2="52.0"/>
    <line x1="792.0" y1="52.0" x2="792.0" y2="72.0"/>
    <line x1="812.0" y1="52.0" x2="812.0" y2="72.0"/>
    <line x1="792.0" y1="72.0" x2="792.0" y2="92.0"/>
    <line x1="812.0" y1="72.0" x2="812.0" y2="92.0"/>
    <line x1="792.0" y1="92.0" x2="792.0" y2="112.0"/>
    <line x1="812.0" y1="92.0" x2="812.0" y2="112.0"/>
    <line x1="792.0" y1="112.0" x2="792.0" y2="132.0"/>
    <line x1="812.0" y1="112.0" x2="812.0" y2="132.0"/>
    <line x1="792.0" y1="132.0" x2="792.0" y2="152.0"/>
    <line x1="812.0" y1="132.0" x2="812.0" y2="152.0"/>
    <line x1="792.0" y1="152.0" x2="792.0" y2="172.0"/>
    <line x1="812.0" y1="152.0" x2="812.0" y2="172.0"/>
    <line x1="792.0" y1="192.0" x2="812.0" y2="192.0"/>
    <line x1="792.0" y1="172.0" x2="792.0" y2="192.0"/>
    <line x1="812.0" y1="172.0" x2="832.0" y2="172.0"/>
    <line x1="812.0" y1="192.0" x2="832.0" y2="192.0"/>
    <line x1="832.0" y1="172.0" x2="852.0" y2="172.0"/>
    <line x1="832.0" y1="192.0" x2="852.0" y2="192.0"/>
    <line x1="852.0" y1="172.0" x2="872.0" y2="172.0"/>
    <line x1="852.0" y1="192.0" x2="872.0" y2="192.0"/>
    <line x1="872.0" y1="172.0" x2="892.0" y2="172.0"/>
    <line x1="872.0" y1="192.0" x2="892.0" y2="192.0"/>
    <line x1="892.0" y1="172.0" x2="892.0" y2="192.0"/>
    <line x1="912.0" y1="52.0" x2="932.0" y2="52.0"/>
    <line x1="912.0" y1="52.0" x2="912.0" y2="72.0"/>
    <line x1="932.0" y1="52.0" x2="952.0" y2="52.0"/>
    <line x1="932.0" y1="72.0" x2="952.0" y2="72.0"/>
    <line x1="952.0" y1="52.0" x2="972.0" y2="52.0"/>
    <line x1="952.0" y1="72.0" x2="972.0" y2="72.0"/>
    <line x1="972.0" y1="52.0" x2="992.0" y2="52.0"/>
    <line x1="972.0" y1="72.0" x2="992.0" y2="72.0"/>
    <line x1="992.0" y1="52.0" x2="1012.0" y2="52.0"/>
    <line x1="992.0" y1="72.0" x2="1012.0" y2="72.0"/>
    <line x1="1012.0" y1="52.0" x2="1012.0" y2="72.0"/>
    <line x1="912.0" y1="72.0" x2="912.0" y2="92.0"/>
    <line x1="932.0" y1="72.0" x2="932.0" y2="92.0"/>
    <line x1="912.0" y1="92.0" x2="912.0" y2="112.0"/>
    <line x1="932.0" y1="92.0" x2="932.0" y2="112.0"/>
    <line x1="912.0" y1="132.0" x2="932.0" y2="132.0"/>
    <line x1="912.0" y1="112.0" x2="912.0" y2="132.0"/>
    <line x1="932.0" y1="112.0" x2="952.0" y2="112.0"/>
    <line x1="932.0" y1="132.0" x2="952.0" y2="132.0"/>
    <line x1="952.0" y1="112.0" x2="972.0" y2="112.0"/>
    <line x1="952.0" y1="132.0" x2="972.0" y2="132.0"/>
    <line x1="972.0" y1="112.0" x2="992.0" y2="112.0"/>
    <line x1="972.0" y1="132.0" x2="992.0" y2="132.0"/>
    <line x1="992.0" y1="112.0" x2="1012.0" y2="112.0"/>
    <line x1="1012.0" y1="112.0" x2="1012.0" y2="132.0"/>
    <line x1="992.0" y1="132.0" x2="992.0" y2="152.0"/>
    <line x1="1012.0" y1="132.0" x2="1012.0" y2="152.0"/>
    <line x1="992.0" y1="152.0" x2="992.0" y2="172.0"/>
    <line x1="1012.0" y1="152.0" x2="1012.0" y2="172.0"/>
    <line x1="912.0" y1="172.0" x2="932.0" y2="172.0"/>
    <line x1="912.0" y1="192.0" x2="932.0" y2="192.0"/>
    <line x1="912.0" y1="172.0" x2="912.0" y2="192.0"/>
    <line x1="932.0" y1="172.0" x2="952.0" y2="172.0"/>
    <line x1="932.0" y1="192.0" x2="952.0" y2="192.0"/>
    <line x1="952.0" y1="172.0" x2="972.0" y2="172.0"/>
    <line x1="952.0" y1="192.0" x2="972.0" y2="192.0"/>
    <line x1="972.0" y1="172.0" x2="992.0" y2="172.0"/>
    <line x1="972.0" y1="192.0" x2="992.0" y2="192.0"/>
    <line x1="992.0" y1="192.0" x2="1012.0" y2="192.0"/>
    <line x1="1012.0" y1="172.0" x2="1012.0" y2="192.0"/>
  </g>
  <g fill="url(#gold)">
    <rect x="60" y="40" width="20" height="20"/>
    <rect x="80" y="40" width="20" height="20"/>
    <rect x="100" y="40" width="20" height="20"/>
    <rect x="120" y="40" width="20" height="20"/>
    <rect x="140" y="40" width="20" height="20"/>
    <rect x="60" y="60" width="20" height="20"/>
    <rect x="60" y="80" width="20" height="20"/>
    <rect x="60" y="100" width="20" height="20"/>
    <rect x="80" y="100" width="20" height="20"/>
    <rect x="100" y="100" width="20" height="20"/>
    <rect x="120" y="100" width="20" height="20"/>
    <rect x="140" y="100" width="20" height="20"/>
    <rect x="140" y="120" width="20" height="20"/>
    <rect x="140" y="140" width="20" height="20"/>
    <rect x="60" y="160" width="20" height="20"/>
    <rect x="80" y="160" width="20" height="20"/>
    <rect x="100" y="160" width="20" height="20"/>
    <rect x="120" y="160" width="20" height="20"/>
    <rect x="140" y="160" width="20" height="20"/>
    <rect x="180" y="100" width="20" height="20"/>
    <rect x="200" y="100" width="20" height="20"/>
    <rect x="220" y="100" width="20" height="20"/>
    <rect x="240" y="100" width="20" height="20"/>
    <rect x="260" y="100" width="20" height="20"/>
    <rect x="300" y="40" width="20" height="20"/>
    <rect x="320" y="40" width="20" height="20"/>
    <rect x="340" y="40" width="20" height="20"/>
    <rect x="360" y="40" width="20" height="20"/>
    <rect x="380" y="40" width="20" height="20"/>
    <rect x="300" y="60" width="20" height="20"/>
    <rect x="300" y="80" width="20" height="20"/>
    <rect x="300" y="100" width="20" height="20"/>
    <rect x="320" y="100" width="20" height="20"/>
    <rect x="340" y="100" width="20" height="20"/>
    <rect x="360" y="100" width="20" height="20"/>
    <rect x="380" y="100" width="20" height="20"/>
    <rect x="380" y="120" width="20" height="20"/>
    <rect x="380" y="140" width="20" height="20"/>
    <rect x="300" y="160" width="20" height="20"/>
    <rect x="320" y="160" width="20" height="20"/>
    <rect x="340" y="160" width="20" height="20"/>
    <rect x="360" y="160" width="20" height="20"/>
    <rect x="380" y="160" width="20" height="20"/>
    <rect x="420" y="40" width="20" height="20"/>
    <rect x="500" y="40" width="20" height="20"/>
    <rect x="420" y="60" width="20" height="20"/>
    <rect x="480" y="60" width="20" height="20"/>
    <rect x="420" y="80" width="20" height="20"/>
    <rect x="460" y="80" width="20" height="20"/>
    <rect x="420" y="100" width="20" height="20"/>
    <rect x="440" y="100" width="20" height="20"/>
    <rect x="420" y="120" width="20" height="20"/>
    <rect x="460" y="120" width="20" height="20"/>
    <rect x="420" y="140" width="20" height="20"/>
    <rect x="480" y="140" width="20" height="20"/>
    <rect x="420" y="160" width="20" height="20"/>
    <rect x="500" y="160" width="20" height="20"/>
    <rect x="540" y="40" width="20" height="20"/>
    <rect x="560" y="40" width="20" height="20"/>
    <rect x="580" y="40" width="20" height="20"/>
    <rect x="600" y="40" width="20" height="20"/>
    <rect x="620" y="40" width="20" height="20"/>
    <rect x="580" y="60" width="20" height="20"/>
    <rect x="580" y="80" width="20" height="20"/>
    <rect x="580" y="100" width="20" height="20"/>
    <rect x="580" y="120" width="20" height="20"/>
    <rect x="580" y="140" width="20" height="20"/>
    <rect x="540" y="160" width="20" height="20"/>
    <rect x="560" y="160" width="20" height="20"/>
    <rect x="580" y="160" width="20" height="20"/>
    <rect x="600" y="160" width="20" height="20"/>
    <rect x="620" y="160" width="20" height="20"/>
    <rect x="660" y="40" width="20" height="20"/>
    <rect x="660" y="60" width="20" height="20"/>
    <rect x="660" y="80" width="20" height="20"/>
    <rect x="660" y="100" width="20" height="20"/>
    <rect x="660" y="120" width="20" height="20"/>
    <rect x="660" y="140" width="20" height="20"/>
    <rect x="660" y="160" width="20" height="20"/>
    <rect x="680" y="160" width="20" height="20"/>
    <rect x="700" y="160" width="20" height="20"/>
    <rect x="720" y="160" width="20" height="20"/>
    <rect x="740" y="160" width="20" height="20"/>
    <rect x="780" y="40" width="20" height="20"/>
    <rect x="780" y="60" width="20" height="20"/>
    <rect x="780" y="80" width="20" height="20"/>
    <rect x="780" y="100" width="20" height="20"/>
    <rect x="780" y="120" width="20" height="20"/>
    <rect x="780" y="140" width="20" height="20"/>
    <rect x="780" y="160" width="20" height="20"/>
    <rect x="800" y="160" width="20" height="20"/>
    <rect x="820" y="160" width="20" height="20"/>
    <rect x="840" y="160" width="20" height="20"/>
    <rect x="860" y="160" width="20" height="20"/>
    <rect x="900" y="40" width="20" height="20"/>
    <rect x="920" y="40" width="20" height="20"/>
    <rect x="940" y="40" width="20" height="20"/>
    <rect x="960" y="40" width="20" height="20"/>
    <rect x="980" y="40" width="20" height="20"/>
    <rect x="900" y="60" width="20" height="20"/>
    <rect x="900" y="80" width="20" height="20"/>
    <rect x="900" y="100" width="20" height="20"/>
    <rect x="920" y="100" width="20" height="20"/>
    <rect x="940" y="100" width="20" height="20"/>
    <rect x="960" y="100" width="20" height="20"/>
    <rect x="980" y="100" width="20" height="20"/>
    <rect x="980" y="120" width="20" height="20"/>
    <rect x="980" y="140" width="20" height="20"/>
    <rect x="900" y="160" width="20" height="20"/>
    <rect x="920" y="160" width="20" height="20"/>
    <rect x="940" y="160" width="20" height="20"/>
    <rect x="960" y="160" width="20" height="20"/>
    <rect x="980" y="160" width="20" height="20"/>
  </g>
</svg>
